<svg xmlns="http://www.w3.org/2000/svg" viewBox="0 0 112 102" fill="none" role="img" aria-label="ReactPress">
  <title>ReactPress</title>
  <g stroke="#087ea4" stroke-width="5.333" stroke-linecap="round">
    <path fill="none" d="M56 75.165c29.455 0 53.333-10.745 53.333-24s-23.878-24-53.333-24-53.334 10.745-53.334 24 23.879 24 53.334 24Z"/>
    <path fill="none" d="M35.215 63.165c14.728 25.509 35.972 40.815 47.451 34.188 11.48-6.628 8.846-32.68-5.882-58.188-14.727-25.51-35.972-40.816-47.45-34.188-11.48 6.627-8.846 32.679 5.881 58.188Z"/>
    <path fill="none" d="M35.215 39.165c-14.727 25.509-17.36 51.56-5.882 58.188 11.48 6.627 32.724-8.68 47.451-34.188 14.728-25.51 17.362-51.56 5.883-58.188-11.48-6.628-32.724 8.679-47.452 34.188Z"/>
  </g>
  <path fill="#087ea4" d="M47.4 40.8c0-1.4 1.1-2.5 2.5-2.5h9.2c4.4 0 7.8 3.2 7.8 7.4s-3.4 7.4-7.8 7.4h-4.6v8.6c0 1.5-1.2 2.7-2.7 2.7h-2c-1.5 0-2.7-1.2-2.7-2.7V40.8zm4.4 2.5v6.9h4.8c2.4 0 4.1-1.6 4.1-3.8s-1.7-3.8-4.1-3.8h-4.8z"/>
</svg>
